<svg xmlns="http://www.w3.org/2000/svg" viewBox="0 0 271.62 292.35"><defs><style>.cls-1,.cls-3{fill:#fff;}.cls-1{opacity:0.2;}.cls-2{fill:#f37920;}.cls-4{fill:none;stroke:#fff;stroke-miterlimit:10;stroke-width:4px;}</style></defs><g id="Camada_2" data-name="Camada 2"><g id="Camada_1-2" data-name="Camada 1"><circle class="cls-1" cx="137.15" cy="136.66" r="111.5"/><polygon class="cls-2" points="31.21 283.47 46.52 263.09 19.09 265.9 22.97 249.31 11.06 245.85 12.19 241.95 27.81 246.49 24.34 261.28 55.35 258.11 34.46 285.91 31.21 283.47"/><path class="cls-2" d="M10,14.78l5.12,26.44L36.84,21.41Zm8,17.67L15.76,20.87l11.77,2.9Z"/><path class="cls-2" d="M79.42,292.35l-26.3-.17,15.12-24.44ZM61,287.81l11.51.07-4.89-10.77Z"/><path class="cls-2" d="M205.24,250.62,195.1,270.5l-12.78-20.76Zm-10.45,12.23,4.44-8.71-10-.38Z"/><path class="cls-2" d="M37.57,6.73a6.73,6.73,0,1,1,6.73,6.73A6.74,6.74,0,0,1,37.57,6.73Zm10.51,0a3.78,3.78,0,1,0-3.78,3.78A3.79,3.79,0,0,0,48.08,6.73Z"/><path class="cls-3" d="M222.78,233.41l3.81,4.19c-2.49,2.27-5.1,4.47-7.76,6.54l-3.48-4.46C217.89,237.69,220.39,235.58,222.78,233.41Z"/><path class="cls-3" d="M236.14,219.29l4.39,3.56c-2.12,2.62-4.38,5.19-6.69,7.64l-4.11-3.89C231.94,224.26,234.1,221.8,236.14,219.29Z"/><path class="cls-3" d="M247.24,203.31l4.87,2.88c-1.71,2.9-3.55,5.78-5.47,8.55L242,211.51C243.83,208.86,245.59,206.1,247.24,203.31Z"/><path class="cls-3" d="M251.86,194.75l.13-.25c1.43-2.91,2.76-5.9,4-8.89l5.25,2.12c-1.25,3.11-2.64,6.23-4.13,9.26l-.13.26Z"/><path class="cls-3" d="M247.1,69.45a130.55,130.55,0,0,1,15.39,97.39l5.37,1.88a136.27,136.27,0,0,0-16.38-103Z"/><path class="cls-3" d="M175.12,266.82,173,261.57a129.67,129.67,0,0,1-94.52-7.85C14,222.08-12.66,143.92,19,79.5s109.8-91.1,174.23-59.45a129.56,129.56,0,0,1,33.46,23.61L231,40A134.88,134.88,0,0,0,195.7,15C128.48-18,46.92,9.78,13.9,77s-5.19,148.78,62,181.8A135.24,135.24,0,0,0,175.12,266.82Z"/><path class="cls-2" d="M222.23,52.73A18.07,18.07,0,1,1,240.3,70.8,18.1,18.1,0,0,1,222.23,52.73Zm28.21,0A10.15,10.15,0,1,0,240.3,62.88,10.16,10.16,0,0,0,250.44,52.73Z"/><path class="cls-4" d="M165.55,156.57l-3.31,24H132.19l3.46-24H88l3-21,56.5-60.11H177L168.7,134H183l-3.31,22.54Zm-23.44-44.92L121.22,134H139Z"/></g></g></svg>