<svg xmlns="http://www.w3.org/2000/svg" viewBox="0 0 70 70"><defs><style>.cls-1{fill:#f37920;}.cls-2{fill:#fff;}</style></defs><g id="Camada_2" data-name="Camada 2"><g id="Camada_1-2" data-name="Camada 1"><circle class="cls-1" cx="35" cy="35" r="35"/><path class="cls-2" d="M55.25,17.58A26.57,26.57,0,0,1,61.6,37.65c-1.16,12-12.38,23-24.39,24A26.76,26.76,0,0,1,8.36,32.77C9.32,20.91,20.2,9.71,32,8.43A26.62,26.62,0,0,1,51.9,14.31a1,1,0,0,0,1.34-.06l.2-.2a1,1,0,0,0-.06-1.47A28.94,28.94,0,1,0,57,16.05a1,1,0,0,0-1.46,0l-.2.2A1,1,0,0,0,55.25,17.58Z"/><path class="cls-2" d="M52.82,32.15l-9.7-9.71a4.28,4.28,0,0,0-2.55-1.28,4,4,0,0,0-3.48,1.36,4.28,4.28,0,0,0,.33,5.64l2.5,2.51H30.53a1,1,0,0,0-1,1v.69a1,1,0,0,0,1,1H43.17a1.35,1.35,0,0,0,1.25-.83,1.34,1.34,0,0,0-.3-1.47l-4.93-4.94a1.34,1.34,0,0,1,1-2.3,1.32,1.32,0,0,1,1,.4l9.83,9.83a1.35,1.35,0,0,1,0,1.89l-9.6,9.83a1.37,1.37,0,0,1-1.9,0,1.29,1.29,0,0,1-.4-.94,1.33,1.33,0,0,1,.38-1l4.84-5a1.34,1.34,0,0,0-1-2.28H20.43a1.7,1.7,0,0,1-1.71-1.37,1.64,1.64,0,0,1,1.62-1.92H26a1,1,0,0,0,1-1v-.69a1,1,0,0,0-1-1H20.53A4.46,4.46,0,0,0,16,34.57a4.34,4.34,0,0,0,4.31,4.77H40.09l-2.51,2.57a4.22,4.22,0,0,0-1.22,2.45,4,4,0,0,0,4,4.51,4,4,0,0,0,2.89-1.22l9.6-9.83A4,4,0,0,0,52.82,32.15Z"/></g></g></svg>