<svg xmlns="http://www.w3.org/2000/svg" viewBox="0 0 70 70"><defs><style>.cls-1{fill:#f37920;}.cls-2{fill:#fff;}</style></defs><g id="Camada_2" data-name="Camada 2"><g id="Camada_1-2" data-name="Camada 1"><circle class="cls-1" cx="35" cy="35" r="35"/><path class="cls-2" d="M14.75,17.58A26.57,26.57,0,0,0,8.4,37.65c1.16,12,12.38,23,24.39,24A26.76,26.76,0,0,0,61.64,32.77C60.68,20.91,49.8,9.71,38,8.43A26.62,26.62,0,0,0,18.1,14.31a1,1,0,0,1-1.34-.06l-.2-.2a1,1,0,0,1,.06-1.47,28.94,28.94,0,1,1-3.57,3.47,1,1,0,0,1,1.46,0l.2.2A1,1,0,0,1,14.75,17.58Z"/><path class="cls-2" d="M17.18,32.15l9.7-9.71a4.28,4.28,0,0,1,2.55-1.28,4,4,0,0,1,3.48,1.36,4.28,4.28,0,0,1-.33,5.64l-2.5,2.51h9.39a1,1,0,0,1,1,1v.69a1,1,0,0,1-1,1H26.83a1.35,1.35,0,0,1-1.25-.83,1.34,1.34,0,0,1,.3-1.47l4.93-4.94a1.34,1.34,0,0,0-.95-2.3,1.32,1.32,0,0,0-.95.4l-9.83,9.83a1.35,1.35,0,0,0,0,1.89l9.6,9.83a1.37,1.37,0,0,0,1.9,0,1.29,1.29,0,0,0,.4-.94,1.33,1.33,0,0,0-.38-1l-4.84-5a1.34,1.34,0,0,1,1-2.28H49.57a1.7,1.7,0,0,0,1.71-1.37,1.64,1.64,0,0,0-1.62-1.92H44a1,1,0,0,1-1-1v-.69a1,1,0,0,1,1-1h5.46A4.46,4.46,0,0,1,54,34.57a4.34,4.34,0,0,1-4.31,4.77H29.91l2.51,2.57a4.22,4.22,0,0,1,1.22,2.45,4,4,0,0,1-4,4.51,4,4,0,0,1-2.89-1.22l-9.6-9.83A4,4,0,0,1,17.18,32.15Z"/></g></g></svg>