<svg xmlns="http://www.w3.org/2000/svg" viewBox="0 0 166.16 199.64"><defs><style>.cls-1{fill:#421664;}.cls-2{fill:#a2238d;}.cls-3{fill:#fff;fill-rule:evenodd;}</style></defs><g id="Layer_2" data-name="Layer 2"><g id="Camada_1" data-name="Camada 1"><path class="cls-1" d="M13.86,167c5.2,0,8.15,2.88,8.13,8,0,6.26-4,10.46-10.6,9.76l-3-.29c-.39,2.9-.79,5.78-1.18,8.64-2.42-.38-4.84-.77-7.26-1.19Q1.74,179.76,3.49,167Zm-2.63,11.81c2.2.15,3.1-1.19,3.1-3.64,0-1.71-.84-2.39-2.91-2.46l-1.39,0c-.26,2-.53,4-.79,6Z"/><path class="cls-1" d="M23.27,184.3c0-10.64,6-17.76,14.74-17.85,6.74,0,10.57,4.49,10.54,12.39,0,11.83-5.92,19.26-14.79,18.29C27.42,196.43,23.24,191.27,23.27,184.3Zm17.8-4.92c0-3.79-1.62-6.31-4.08-6.35-3.31-.05-6.22,4.26-6.24,11,0,3.82,1.54,6.45,4,6.65C38.24,191,41,186.92,41.07,179.38Z"/><path class="cls-1" d="M62.88,167.12c6.73,0,10.43,4.86,10.43,13.29,0,11.12-5.46,18.41-14,18-3.18-.16-6.36-.34-9.54-.56q1.8-15.24,3.6-30.73ZM59.43,191.7c4,.15,6.37-3.53,6.38-11.24,0-4.87-1.63-6.59-4.69-6.62H59.94q-1,8.92-2,17.81Z"/><path class="cls-1" d="M94.63,197.93a16.53,16.53,0,0,1-7.54,1.71c-7,.05-11.66-5.29-11.65-14.35,0-10.92,6.22-18.84,15.09-18.84a25.49,25.49,0,0,1,6.2.9q-.83,3.53-1.63,7.07A13,13,0,0,0,91,173.8c-4.56,0-8.09,4.61-8.09,10.75,0,5,2.53,7.7,6.43,7.66a14.12,14.12,0,0,0,4.54-.66Z"/><path class="cls-1" d="M120.21,197.57c-2.62.2-5.24.37-7.86.53-.12-1.69-.25-3.38-.37-5.07-2.34.11-4.69.21-7,.3l-1.53,5.22q-3.65.15-7.29.25c0-.23.05-.46.07-.68,3.54-10.43,7.06-20.8,10.57-31h9.59q2,15,3.91,29.8ZM110.57,174q-1.77,6-3.54,12.1l4.43-.14Q111,180,110.57,174Z"/><path class="cls-1" d="M124,189.51a20.61,20.61,0,0,0,6.56.62c1.82-.14,2.88-.77,2.88-2.11,0-2.74-9.38-1.78-9.42-11,0-4.62,2.78-10.64,10.83-10.6a25.1,25.1,0,0,1,7.09,1c-.45,2.11-.91,4.23-1.36,6.37a26.9,26.9,0,0,0-5-.53c-2.13.05-3.7.88-3.69,2.58,0,3.22,9.52,2.49,9.55,10.28,0,6-4.41,10.53-11.22,11.23a17.05,17.05,0,0,1-7.77-1Q123.16,192.9,124,189.51Z"/><path class="cls-1" d="M158.26,173q-1.33,10.15-2.65,20.62c-2.43.36-4.85.7-7.28,1q1.32-10.83,2.64-21.38l-7.12.22q.38-3.22.76-6.43l21.55-.07q-.39,2.85-.78,5.73C163,172.81,160.64,172.91,158.26,173Z"/><circle class="cls-2" cx="80.93" cy="80.1" r="57.81"/><path class="cls-3" d="M109.81,77.45a2.47,2.47,0,0,0-4.93,0,23.95,23.95,0,1,1-47.89,0h0a2.47,2.47,0,0,0-4.94,0,28.86,28.86,0,0,0,26.42,28.77v11H67.73a2.47,2.47,0,1,0,0,4.93H94.14a2.47,2.47,0,0,0,0-4.93H83.4v-11A28.92,28.92,0,0,0,109.81,77.45Z"/><path class="cls-3" d="M80.93,38A18.3,18.3,0,0,0,62.62,56.33v4.82h4.93V56.33a13.38,13.38,0,0,1,26.53-2.47H80.93a2.47,2.47,0,0,0,0,4.93H94.32v5.63H80.93a2.47,2.47,0,0,0,0,4.94H94.32V75H80.93a2.47,2.47,0,0,0,0,4.93H94.09c-1.61,8.7-9.55,10.92-13.16,10.92A13.38,13.38,0,0,1,67.55,77.45V70H62.62v7.49a18.32,18.32,0,1,0,36.63,0V56.32A18.33,18.33,0,0,0,80.93,38Z"/><polygon class="cls-2" points="159.94 137.87 150.39 128.74 150.15 143.03 141.85 140.01 139.33 145.93 137.4 145.11 140.69 137.35 148.09 140.04 148.36 123.89 161.39 136.35 159.94 137.87"/><path class="cls-2" d="M19,130.08l5.72,12.73-15.13-1.9ZM20.83,140l-2.51-5.57-4.12,4.74Z"/><path class="cls-2" d="M156.62,106.26l3.37,7.5-8.91-1.13Zm1.1,5.82-1.47-3.29-2.43,2.8Z"/><path class="cls-2" d="M28,20.69a7,7,0,1,1,7-7A7,7,0,0,1,28,20.69Zm0-11A3.95,3.95,0,1,0,32,13.66,4,4,0,0,0,28,9.71Z"/><path class="cls-2" d="M6.5,118.68a2.63,2.63,0,1,1,2.63-2.63A2.62,2.62,0,0,1,6.5,118.68Zm0-4.11A1.48,1.48,0,1,0,8,116.05,1.48,1.48,0,0,0,6.5,114.57Z"/><path class="cls-2" d="M121,11.66a1.39,1.39,0,0,1-1.39-1.39V1.39a1.39,1.39,0,1,1,2.77,0v8.88A1.38,1.38,0,0,1,121,11.66Z"/><path class="cls-2" d="M148,35.13a1.5,1.5,0,0,1-.28-3l10-1.86a1.49,1.49,0,1,1,.54,2.94l-10,1.86Z"/><path class="cls-2" d="M138.61,21.14a1.66,1.66,0,0,1-1.05-.37,1.7,1.7,0,0,1-.27-2.38l6.21-7.81a1.69,1.69,0,1,1,2.65,2.1l-6.21,7.82A1.7,1.7,0,0,1,138.61,21.14Z"/><path class="cls-1" d="M18.14,55.06,15.41,54c.65-1.63,1.36-3.25,2.12-4.82l2.64,1.28C19.44,52,18.76,53.5,18.14,55.06Z"/><path class="cls-1" d="M26,35.84c1.09-1.36,2.25-2.7,3.44-4l2.15,2c-1.14,1.22-2.25,2.51-3.3,3.81Z"/><path class="cls-1" d="M15.16,64.68,12.3,64c.39-1.71.85-3.42,1.37-5.09l2.8.87C16,61.41,15.53,63.05,15.16,64.68Z"/><path class="cls-1" d="M13.64,74.65l-2.92-.22c.13-1.75.33-3.51.59-5.23l2.9.44C14,71.29,13.77,73,13.64,74.65Z"/><path class="cls-1" d="M20,44.51c.88-1.51,1.82-3,2.81-4.44l2.42,1.66c-.94,1.38-1.85,2.81-2.69,4.26Z"/><path class="cls-1" d="M13.45,79.69v.15c0,1.68.06,3.38.18,5l-2.92.22c-.13-1.74-.2-3.51-.2-5.26v-.15Z"/><path class="cls-1" d="M80.67,147.58a67.49,67.49,0,1,0-45.77-117l-2.21-2A70.39,70.39,0,1,1,12,95.46l2.93-.35A67.6,67.6,0,0,0,80.67,147.58Z"/></g></g></svg>