<svg xmlns="http://www.w3.org/2000/svg" viewBox="0 0 85.21 107.56"><defs><style>.cls-1{fill:#fff;}.cls-2{fill:#a3238e;}</style></defs><g id="Camada_2" data-name="Camada 2"><g id="Camada_1-2" data-name="Camada 1"><path class="cls-1" d="M64,84.43H21.23a2.6,2.6,0,0,0,0,5.2H64a2.6,2.6,0,1,0,0-5.2Z"/><path class="cls-2" d="M40.71,75.11a2.58,2.58,0,0,0,3.79,0L59.73,58.77a2.6,2.6,0,1,0-3.8-3.54L45.2,66.74V38.37a2.6,2.6,0,1,0-5.19,0V66.74L29.3,55.23a2.59,2.59,0,1,0-3.79,3.54Z"/><path class="cls-2" d="M84.46,28.63,58,.83A2.59,2.59,0,0,0,56.09,0h-42A14.2,14.2,0,0,0,0,14.11V27.87H5.2V14.11A9,9,0,0,1,14.13,5.2H53.52V21.61A11.36,11.36,0,0,0,64.92,33H80V93.45a9,9,0,0,1-8.94,8.91H14.13A9,9,0,0,1,5.2,93.45V35H0V93.45a14.2,14.2,0,0,0,14.13,14.11h57A14.2,14.2,0,0,0,85.21,93.45v-63A2.79,2.79,0,0,0,84.46,28.63ZM64.92,27.8a6.19,6.19,0,0,1-6.21-6.19V9.17L76.46,27.8Z"/></g></g></svg>