<svg xmlns="http://www.w3.org/2000/svg" viewBox="0 0 472.7 387.07"><defs><style>.cls-1{fill:#fff;}.cls-2{fill:#b1d249;}</style></defs><g id="Camada_2" data-name="Camada 2"><g id="Camada_1-2" data-name="Camada 1"><path class="cls-1" d="M196.06,387.07l-20.34-10.7-20.34,10.7,3.88-22.65-16.46-16,22.75-3.31,10.17-20.61,10.17,20.61,22.74,3.31-16.46,16Zm-20.34-13.93,16.54,8.7-3.16-18.42,13.38-13.05L184,347.69l-8.27-16.76-8.27,16.76L149,350.37l13.38,13.05-3.15,18.42Z"/><path class="cls-1" d="M2.67,141,0,138.28l69.2-69.2a3.49,3.49,0,0,0,1-2.48,3.53,3.53,0,0,0-1-2.49L56.79,51.71a6.81,6.81,0,0,1,4-11.57l68.13-8.22A7.25,7.25,0,0,1,137,40l-8.21,68.13a6.81,6.81,0,0,1-11.57,4l-12.4-12.4a3.59,3.59,0,0,0-5,0L63.93,135.6l-2.67-2.67L97.15,97a7.29,7.29,0,0,1,10.32,0l12.4,12.4a3,3,0,0,0,5.15-1.78l8.21-68.13a3.46,3.46,0,0,0-3.85-3.85L61.25,43.89A3,3,0,0,0,59.47,49l12.4,12.4a7.29,7.29,0,0,1,0,10.32Z"/><rect class="cls-1" x="287.17" y="127.47" width="89.83" height="3.78" transform="translate(5.79 272.71) rotate(-45)"/><polygon class="cls-1" points="366.66 118.27 362.88 118.27 362.88 98.57 343.19 98.57 343.19 94.79 366.66 94.79 366.66 118.27"/><path class="cls-1" d="M186.86,69.4a41.16,41.16,0,1,1,61-1.28l-2.85-2.48a37.38,37.38,0,1,0-55.45,1.17Z"/><polygon class="cls-1" points="214.84 54.57 195.97 35.69 198.64 33.02 214.84 49.22 234.98 29.09 237.65 31.76 214.84 54.57"/><polygon class="cls-1" points="280.96 374.56 273.89 367.72 262.73 373.39 254.9 355.79 245.1 369.16 242.06 366.93 255.71 348.3 264.57 368.22 274.58 363.13 283.58 371.84 280.96 374.56"/><path class="cls-1" d="M303.52,82.33A10.93,10.93,0,1,1,314.45,71.4,10.94,10.94,0,0,1,303.52,82.33Zm0-18.07a7.15,7.15,0,1,0,7.15,7.14A7.15,7.15,0,0,0,303.52,64.26Z"/><rect class="cls-1" x="29.41" y="356.66" width="51.04" height="3.78" transform="translate(-237.44 143.85) rotate(-45)"/><rect class="cls-1" x="78.8" y="355.56" width="25.52" height="3.78" transform="translate(-225.94 169.43) rotate(-45)"/><path class="cls-1" d="M326.59,282.52a16.68,16.68,0,0,0,5,12,17.36,17.36,0,0,0,24.05,0,17,17,0,1,0-24.05-24.06A16.78,16.78,0,0,0,326.59,282.52Z"/><path class="cls-1" d="M306.55,319.6a52.32,52.32,0,0,0,74.16,0,52.44,52.44,0,1,0-74.16,0Zm7.52-37.08a29.5,29.5,0,1,1,8.64,20.92A29.31,29.31,0,0,1,314.07,282.52Z"/><path class="cls-1" d="M343.71,353.54a71.15,71.15,0,1,1,39.78-130.15l-2.11,3.13a67.3,67.3,0,1,0,18.71,19l3.16-2.07a71.17,71.17,0,0,1-59.54,110.13Z"/><polygon class="cls-1" points="415.97 208.34 448.39 175.93 445.69 151.62 413.27 184.03 415.97 208.34"/><polygon class="cls-1" points="415.97 208.34 448.39 175.93 472.69 178.63 440.28 211.04 415.97 208.34"/><rect class="cls-1" x="323.67" y="225.7" width="146.11" height="3.78" transform="translate(-44.73 347.19) rotate(-45)"/><rect class="cls-1" x="21.06" y="248.12" width="60.4" height="3.78" transform="translate(-161.77 109.47) rotate(-45)"/><polygon class="cls-1" points="75.25 245.45 71.47 245.45 71.47 229.79 55.81 229.79 55.81 226.01 75.25 226.01 75.25 245.45"/><path class="cls-2" d="M296.73,212.41c0-8.65,11.75-18.74,9.62-26.72-2.21-8.26-17.49-11.11-21.68-18.34s.89-22-5.07-27.94-20.6-.82-27.93-5.07-10.08-19.46-18.34-21.67c-8-2.13-18.07,9.62-26.73,9.62s-18.74-11.75-26.72-9.62c-8.26,2.21-11.11,17.49-18.34,21.67s-22-.88-27.94,5.08-.82,20.59-5.07,27.93-19.46,10.08-21.67,18.34c-2.13,8,9.61,18.07,9.61,26.72s-11.74,18.74-9.61,26.73c2.21,8.26,17.49,11.11,21.67,18.34s-.88,22,5.07,27.93,20.6.83,27.94,5.07,10.08,19.47,18.34,21.68c8,2.13,18.07-9.62,26.72-9.62s18.74,11.75,26.73,9.62c8.26-2.21,11.11-17.49,18.34-21.68s22,.89,27.93-5.07.83-20.59,5.07-27.93,19.47-10.08,21.68-18.34C308.48,231.15,296.73,221.07,296.73,212.41Z"/><path class="cls-1" d="M134.94,126.25c6-6,20.6-.82,27.94-5.07S173,101.72,181.22,99.51c8-2.14,18.07,9.61,26.72,9.61s18.74-11.75,26.73-9.61c8.26,2.21,11.11,17.49,18.34,21.67s22-.88,27.93,5.07.83,20.6,5.07,27.94c3.87,6.67,17.18,9.62,20.94,16.53,1.34-2.89,2.1-5.68,1.41-8.26-2.21-8.26-17.49-11.11-21.67-18.34s.88-22-5.08-27.93-20.59-.83-27.93-5.08S243.6,91.65,235.34,89.44c-8-2.13-18.07,9.62-26.72,9.62s-18.74-11.75-26.73-9.62c-8.26,2.21-11.11,17.49-18.34,21.68s-22-.89-27.93,5.07c-3.27,3.26-3.2,9.15-3.17,15A10,10,0,0,1,134.94,126.25Z"/><path class="cls-1" d="M205.35,248.54,166.47,207.3a4.92,4.92,0,1,1,7.15-6.75l30.54,32.39,38.62-56a4.92,4.92,0,1,1,8.09,5.59Z"/></g></g></svg>