<svg xmlns="http://www.w3.org/2000/svg" viewBox="0 0 477 361"><defs><style>.cls-1{fill:none;}.cls-2{fill:#f25921;}.cls-3{fill:#f37920;}.cls-4{fill:#fff;}.cls-5{fill:#005f55;}</style></defs><g id="Layer_2" data-name="Layer 2"><g id="Camada_1" data-name="Camada 1"><rect class="cls-1" width="477" height="361"/><polygon class="cls-2" points="347.73 336.44 358.07 360.93 474.79 336.44 347.73 336.44"/><polygon class="cls-2" points="218.21 29.82 305.53 29.82 205.65 0.09 218.21 29.82"/><polygon class="cls-3" points="358.09 360.96 52.17 360.96 61.8 0.04 205.63 0.04 358.09 360.96"/><path class="cls-4" d="M148.77,326.48l-20-10.53-20,10.53,3.82-22.29L96.37,288.4l22.38-3.25,10-20.28,10,20.28,22.38,3.25L145,304.19Zm-20-13.71L145,321.33l-3.11-18.13,13.17-12.83-18.2-2.65-8.13-16.49-8.14,16.49-18.2,2.65,13.17,12.83-3.11,18.13Z"/><path class="cls-4" d="M12.82,134.62l-2-2L62.39,81.07a2.63,2.63,0,0,0,0-3.7l-9.24-9.24a5.08,5.08,0,0,1,3-8.63l50.76-6.12a5.41,5.41,0,0,1,6,6l-6.13,50.76a5.07,5.07,0,0,1-8.62,3l-9.24-9.24a2.68,2.68,0,0,0-3.7,0L58.47,130.63l-2-2L83.22,101.9a5.43,5.43,0,0,1,7.68,0l9.24,9.24a2.26,2.26,0,0,0,3.84-1.33l6.12-50.76a2.59,2.59,0,0,0-2.87-2.87L56.46,62.3a2.23,2.23,0,0,0-1.86,1.5,2.19,2.19,0,0,0,.54,2.33l9.24,9.24a5.44,5.44,0,0,1,0,7.69Z"/><rect class="cls-4" x="213.8" y="119.58" width="66.93" height="2.82" transform="translate(-13.13 210.28) rotate(-45)"/><polygon class="cls-4" points="273.02 112.72 270.21 112.72 270.21 98.04 255.53 98.04 255.53 95.22 273.02 95.22 273.02 112.72"/><path class="cls-4" d="M145.06,76.31a30.67,30.67,0,1,1,45.49-1l-2.13-1.85a27.85,27.85,0,1,0-41.31.87Z"/><polygon class="cls-4" points="165.91 65.25 151.84 51.19 153.83 49.2 165.91 61.27 180.91 46.27 182.9 48.26 165.91 65.25"/><polygon class="cls-4" points="220.17 317.67 214.9 312.58 206.59 316.8 200.75 303.69 193.46 313.65 191.18 311.99 201.35 298.11 207.96 312.95 215.41 309.16 222.13 315.65 220.17 317.67"/><path class="cls-3" d="M20.75,91.06,3.22,81.54l16.62-8.72ZM9.2,81.58l8.49,4.62-.44-8.84Z"/><path class="cls-4" d="M243,61.94a8.14,8.14,0,1,1,8.14-8.14A8.15,8.15,0,0,1,243,61.94Zm0-13.47a5.33,5.33,0,1,0,5.32,5.33A5.33,5.33,0,0,0,243,48.47Z"/><rect class="cls-4" x="27.74" y="290.34" width="38.03" height="2.82" transform="translate(-192.6 118.51) rotate(-45)"/><rect class="cls-5" x="64.54" y="289.52" width="19.01" height="2.82" transform="translate(-184.03 137.57) rotate(-45)"/><path class="cls-4" d="M248.17,237.1a12.4,12.4,0,0,0,3.74,9,12.93,12.93,0,0,0,17.92,0,12.67,12.67,0,1,0-21.66-9Z"/><path class="cls-4" d="M233.24,264.73a39,39,0,0,0,55.25,0,39.07,39.07,0,1,0-55.25,0Zm5.6-27.63a22,22,0,1,1,6.44,15.59A21.78,21.78,0,0,1,238.84,237.1Z"/><path class="cls-4" d="M260.93,290a53,53,0,1,1,29.64-97L289,195.37a50.17,50.17,0,1,0,13.94,14.13l2.35-1.54a53,53,0,0,1-44.35,82Z"/><polygon class="cls-4" points="314.77 181.83 338.92 157.68 336.9 139.56 312.75 163.72 314.77 181.83"/><polygon class="cls-4" points="314.77 181.83 338.92 157.68 357.03 159.69 332.88 183.84 314.77 181.83"/><rect class="cls-3" x="246" y="194.76" width="108.86" height="2.82" transform="translate(-50.72 269.89) rotate(-45)"/><path class="cls-5" d="M83.25,239.34a1.7,1.7,0,0,1-1-.36,1.73,1.73,0,0,1-.67-1.14,1.7,1.7,0,0,1,.34-1.27l31.24-40.94c2.84-3.37,2.51-10.14.74-15.12-1.33-3.73-1.47-4.83-1.43-5.46l.16-3.3a1.72,1.72,0,0,1,1.7-1.64h.11a1.7,1.7,0,0,1,1.19.56,1.67,1.67,0,0,1,.44,1.24l-.16,3.32v.1a26.94,26.94,0,0,0,1.22,4,27.65,27.65,0,0,1,1.56,9.33c0,3.78-1,6.91-2.82,9L84.62,238.66A1.72,1.72,0,0,1,83.25,239.34Z"/><path class="cls-5" d="M120.49,260.38a1.73,1.73,0,0,1-1.44-2.67l24.88-37.88a38.52,38.52,0,0,1,15.51-13.56l10.17-4.87.06,0c3.29-2.19,18.34-19.18,23.86-25.54a6.84,6.84,0,0,0-.64-8.91,19.57,19.57,0,0,1-3.44-5.3,2.13,2.13,0,0,1-.13-.43l-.74-4.48a7.1,7.1,0,0,0-5.89-5.84l-1.44-.23a1.73,1.73,0,0,1-1.35-1.12l-1.34-3.69a7.13,7.13,0,0,0-6.68-4.68H170a1.73,1.73,0,0,1-1.71-1.47l-.46-3.15a7.17,7.17,0,0,0-6.39-6.05h-.12l-4.58.14a1.72,1.72,0,1,1-.11-3.44l4.73-.14h.18a10.61,10.61,0,0,1,9.7,9l.24,1.65.83,0a10.5,10.5,0,0,1,9.44,6.93l1,2.74.57.1a10.56,10.56,0,0,1,8.62,8.66l.7,4.25.07.13a16.43,16.43,0,0,0,2.5,3.88,10.34,10.34,0,0,1,1,13.53l-.07.08c-9.52,11-21.75,24.48-24.86,26.37l-.15.08-10.25,4.92a35,35,0,0,0-14.12,12.34L121.93,259.6A1.74,1.74,0,0,1,120.49,260.38Z"/><path class="cls-5" d="M240.66,239.34a1.75,1.75,0,0,1-1.31-.61l-33.06-38.88c-1.92-2.27-2.6-6.51-2.07-12.95a49.52,49.52,0,0,0-.61-12.47l-1.82-10.38a12.81,12.81,0,0,0-2.8-6,.81.81,0,0,1-.12-.18l-8.18-12.82a5.69,5.69,0,0,0-4.28-2.59l-12.34-1.06a1.72,1.72,0,0,1-1.57-1.86,1.74,1.74,0,0,1,1.72-1.57h.15l12.34,1.06a9.13,9.13,0,0,1,6.88,4.17L201.71,156l0,0a16.37,16.37,0,0,1,3.44,7.46L207,173.83a52.73,52.73,0,0,1,.65,13.35c-.42,5.18,0,9,1.27,10.44L242,236.5a1.68,1.68,0,0,1,.41,1.25,1.72,1.72,0,0,1-1.72,1.59Z"/><path class="cls-5" d="M202.93,260.38a1.74,1.74,0,0,1-1.51-.88c-.63-1.12-15.6-27.61-24-39.37a13,13,0,0,0-9.24-5.38l-14-1.23a1.72,1.72,0,0,1,.14-3.44h.15l14.06,1.23a16.49,16.49,0,0,1,11.74,6.81c8.68,12.18,24,39.4,24.18,39.68a1.71,1.71,0,0,1-.65,2.34A1.69,1.69,0,0,1,202.93,260.38Z"/><path class="cls-5" d="M186.79,204.51a1.7,1.7,0,0,1-1.29-.58c-3.93-4.46-5.41-12.28-1.1-17.65a1.71,1.71,0,0,1,1.34-.64,1.72,1.72,0,0,1,1.71,1.53,1.71,1.71,0,0,1-.37,1.27c-3.13,3.9-1.92,9.89,1,13.21a1.68,1.68,0,0,1,.43,1.25,1.72,1.72,0,0,1-1.72,1.61Z"/><path class="cls-5" d="M124.85,170.62a7.91,7.91,0,0,1-5.71-2.4l-3.82-3.9A8,8,0,0,1,121,150.75h.11a7.92,7.92,0,0,1,5.62,2.4l3.82,3.9a8,8,0,0,1-5.7,13.57Zm4.38-2.51h0v0ZM121,154.2a4.53,4.53,0,0,0-3.25,7.71l3.82,3.9a4.55,4.55,0,0,0,6.42.07,4.55,4.55,0,0,0,.07-6.42l-3.82-3.9A4.49,4.49,0,0,0,121,154.2Z"/><path class="cls-5" d="M133.34,160.44a8,8,0,0,1-5.61-2.4l-3.82-3.9a8,8,0,0,1,.12-11.3,8,8,0,0,1,11.3.13l3.82,3.9a8,8,0,0,1-5.71,13.57Zm4.48-2.51h0v0ZM129.62,144a4.54,4.54,0,0,0-3.24,7.72l3.81,3.9a4.5,4.5,0,0,0,3.2,1.36h.1a4.46,4.46,0,0,0,3.12-1.29,4.55,4.55,0,0,0,.07-6.42l-3.82-3.9a4.47,4.47,0,0,0-3.19-1.37Z"/><path class="cls-5" d="M142.93,151.15a7.91,7.91,0,0,1-5.71-2.4l-3.82-3.9a8,8,0,1,1,11.41-11.17l3.82,3.9a8,8,0,0,1-5.7,13.57Zm-3.82-16.42a4.54,4.54,0,0,0-3.25,7.71l3.82,3.9a4.55,4.55,0,0,0,3.2,1.37h0a4.55,4.55,0,0,0,3.29-7.72l-3.82-3.9a4.47,4.47,0,0,0-3.19-1.36Z"/><path class="cls-5" d="M153.31,142.76a8,8,0,0,1-5.71-2.39l-3.81-3.91a8,8,0,1,1,11.41-11.17l3.82,3.9a8,8,0,0,1-5.71,13.57Zm-3.82-16.42a4.52,4.52,0,0,0-4.53,4.49,4.45,4.45,0,0,0,1.29,3.22l3.82,3.9a4.48,4.48,0,0,0,3.19,1.37h0a4.55,4.55,0,0,0,3.29-7.72l-3.82-3.9a4.54,4.54,0,0,0-3.2-1.36Z"/><path class="cls-5" d="M160.85,111.63a1.73,1.73,0,0,1-1.73-1.72V87.35a1.73,1.73,0,0,1,3.45,0v22.56A1.72,1.72,0,0,1,160.85,111.63Z"/><path class="cls-5" d="M188.76,116.9a1.71,1.71,0,0,1-.88-.24,1.77,1.77,0,0,1-.79-1.06,1.74,1.74,0,0,1,.19-1.3l11-18.49a1.71,1.71,0,0,1,1.48-.84,1.72,1.72,0,0,1,1.67,1.3,1.65,1.65,0,0,1-.19,1.3l-11,18.49A1.71,1.71,0,0,1,188.76,116.9Z"/><path class="cls-5" d="M213.33,127a1.75,1.75,0,0,1-1.28-.57,1.73,1.73,0,0,1,.13-2.43l11.47-10.3a1.72,1.72,0,0,1,2.43.13,1.71,1.71,0,0,1-.13,2.43l-11.47,10.3A1.72,1.72,0,0,1,213.33,127Z"/><path class="cls-5" d="M135.15,116.9a1.72,1.72,0,0,1-1.48-.84l-11-18.49a1.72,1.72,0,0,1,1.48-2.6,1.7,1.7,0,0,1,1.48.84l11,18.49a1.74,1.74,0,0,1,.19,1.3,1.69,1.69,0,0,1-.79,1.06A1.71,1.71,0,0,1,135.15,116.9Z"/><path class="cls-5" d="M110.58,127a1.72,1.72,0,0,1-1.15-.44L98,116.22a1.73,1.73,0,0,1-.13-2.43,1.75,1.75,0,0,1,1.28-.57,1.72,1.72,0,0,1,1.15.44L111.73,124a1.71,1.71,0,0,1,.13,2.43A1.74,1.74,0,0,1,110.58,127Z"/><rect class="cls-5" x="242.52" y="283.47" width="45" height="2.82" transform="translate(-123.81 270.84) rotate(-45)"/><polygon class="cls-5" points="282.9 281.48 280.08 281.48 280.08 269.81 268.42 269.81 268.42 267 282.9 267 282.9 281.48"/></g></g></svg>