<?xml version="1.0" encoding="utf-8"?>
<!-- Generator: Adobe Illustrator 25.2.1, SVG Export Plug-In . SVG Version: 6.00 Build 0)  -->
<svg version="1.1" id="Layer_1" xmlns="http://www.w3.org/2000/svg" xmlns:xlink="http://www.w3.org/1999/xlink" x="0px" y="0px"
	 viewBox="0 0 45.7 64.4" style="enable-background:new 0 0 45.7 64.4;" xml:space="preserve">
<style type="text/css">
	.st0{fill:#CFDCFF;}
</style>
<g id="Layer_2_1_">
	<g id="Layer_1-2">
		<g id="Layer_2-2">
			<g id="Layer_1-2-2">
				<path class="st0" d="M29.6,10.7c-0.5-0.3-1.2-0.1-1.5,0.4c-0.3,0.5-0.1,1.2,0.4,1.5l0,0c0.5,0.3,1.2,0.1,1.5-0.5
					C30.2,11.7,30.1,11.1,29.6,10.7L29.6,10.7z"/>
				<path class="st0" d="M39.7,1.3c-5.3-2.9-11.9-0.9-14.9,4.3L19,16.3c-2.1,3.8-1.7,8.5,1,11.9l-2,3.5c-4.3-0.3-8.4,1.9-10.5,5.6
					L1.7,48c-3,5.2-1.2,11.9,4,15s11.9,1.2,15-4l0.2-0.4l5.8-10.6c2.1-3.8,1.7-8.5-1-11.9l1.9-3.5c4.3,0.4,8.5-1.8,10.6-5.7L44,16.2
					C46.9,10.9,45,4.3,39.7,1.3z M24.7,46.8l-5.8,10.6c-2.3,4.2-7.7,5.8-11.9,3.5C2.8,58.6,1.2,53.2,3.6,49l5.8-10.6
					c1.5-2.7,4.4-4.5,7.5-4.5l-2.1,3.8c-1.1,0.5-2,1.3-2.5,2.4L6.5,50.6c-1.2,2.8,0.1,6,2.8,7.2c2.4,1.1,5.2,0.2,6.7-1.9l5.8-10.6
					c0.6-1,0.8-2.2,0.6-3.4l2.1-3.8C26.1,40.8,26.2,44.1,24.7,46.8L24.7,46.8z M15.5,45.5c1.1,0.6,2.4,0.7,3.6,0.3l-5,9
					c-0.8,1.6-2.8,2.3-4.4,1.4s-2.3-2.8-1.4-4.4l0,0l0.1-0.2l5-9C13.6,43.8,14.4,44.9,15.5,45.5L15.5,45.5z M20.4,41.1l-0.9,1.6
					c-0.6,1.1-1.9,1.4-3,0.9s-1.4-1.9-0.9-3l0,0l10.5-19.2c0.5-1.1,1.9-1.5,2.9-1c1,0.5,1.5,1.8,1,2.9c0,0.1-0.1,0.1-0.1,0.2
					L20.4,41.1z M36.3,25.7c-1.5,2.7-4.3,4.5-7.5,4.5l2.1-3.8c1.1-0.5,2-1.3,2.5-2.4l0,0l5.8-10.6c1.5-2.6,0.5-6-2.1-7.4
					c-2.2-1.2-5-0.8-6.7,1.1c-0.5,0.4-0.6,1.1-0.3,1.6c0.4,0.5,1.1,0.6,1.6,0.3l0,0c0.1-0.1,0.2-0.2,0.2-0.3
					c1.2-1.3,3.3-1.4,4.6-0.2c1.1,1,1.4,2.7,0.6,4l-5,9c-0.5-2.4-2.8-3.8-5.2-3.3l-0.3,0.1l-0.3,0.1l1.3-2.3
					c0.3-0.5,0.1-1.2-0.4-1.5c-0.5-0.2-1.1,0-1.4,0.5l-2.1,3.9c-0.6,1-0.8,2.2-0.6,3.4l-2.1,3.8c-1.6-2.7-1.7-6-0.2-8.8l5.8-10.6
					c2.3-4.2,7.6-5.8,11.9-3.5s5.8,7.6,3.5,11.9L36.3,25.7z"/>
				<path class="st0" d="M10.4,25.2c0.3-0.5,0.1-1.2-0.4-1.5l-5.8-3.1c-0.5-0.4-1.2-0.3-1.5,0.2c0,0,0,0,0,0
					c-0.4,0.5-0.3,1.2,0.2,1.5c0.1,0.1,0.2,0.1,0.3,0.1L9,25.7C9.5,25.9,10.1,25.7,10.4,25.2z"/>
				<path class="st0" d="M0,33.1c0.2,0.6,0.8,0.9,1.4,0.8L7.7,32c0.6,0,1.1-0.6,1-1.2s-0.6-1.1-1.2-1c-0.1,0-0.3,0.1-0.4,0.1
					l-6.3,1.8c-0.6,0.1-1,0.7-0.8,1.3C0,33.1,0,33.1,0,33.1L0,33.1z"/>
				<path class="st0" d="M14.7,19.3L12.9,13c-0.2-0.6-0.8-0.9-1.4-0.7s-0.9,0.8-0.7,1.4l0,0l1.8,6.4c0.2,0.6,0.8,0.9,1.4,0.7
					C14.5,20.6,14.9,20,14.7,19.3L14.7,19.3z"/>
				<path class="st0" d="M35.3,38.9c-0.3,0.5-0.1,1.2,0.4,1.5c0,0,0,0,0,0l0,0l5.8,3.2c0.6,0.2,1.2-0.1,1.4-0.6c0.2-0.5,0-1-0.4-1.3
					l-5.8-3.2C36.2,38.2,35.6,38.4,35.3,38.9z"/>
				<path class="st0" d="M31.1,44.8l1.9,6.3c0.2,0.6,0.8,0.9,1.4,0.7s0.9-0.8,0.7-1.4l-1.8-6.3c-0.2-0.6-0.8-0.9-1.4-0.7
					C31.3,43.6,31,44.2,31.1,44.8C31.2,44.8,31.2,44.8,31.1,44.8L31.1,44.8z"/>
				<path class="st0" d="M45.7,31.1c-0.2-0.6-0.8-0.9-1.4-0.7L38,32.2c-0.6,0.2-0.9,0.8-0.7,1.4s0.8,0.9,1.4,0.7l0,0l6.4-1.8
					C45.6,32.3,45.8,31.7,45.7,31.1z"/>
			</g>
		</g>
	</g>
</g>
</svg>
