<svg xmlns="http://www.w3.org/2000/svg" viewBox="0 0 277.65 82.57"><defs><style>.cls-1{fill:#fff;}.cls-2{fill:#f37920;}.cls-3{fill:#ffca05;}</style></defs><g id="Camada_2" data-name="Camada 2"><g id="Camada_1-2" data-name="Camada 1"><rect class="cls-1" x="11.15" y="12.39" width="242.25" height="57.78"/><path class="cls-2" d="M22.3,47a25.69,25.69,0,0,0,6.41.87c1.78,0,2.82-.46,2.82-1.57,0-2.3-9.16-2-9.16-9.37,0-3.73,2.75-8.57,10.62-8.57a27.08,27.08,0,0,1,6.94.84l-1.36,5.43A29.1,29.1,0,0,0,33.66,34c-2.09,0-3.63.66-3.63,2.06,0,2.65,9.3,2.37,9.3,9.09,0,5.16-4.35,8.57-11,8.57a21.73,21.73,0,0,1-7.6-1.39Z"/><path class="cls-2" d="M62.81,53.22H55.15l-.35-4H47.94l-1.5,4H39.33l.07-.53L49.79,28.83h9.37l3.72,23.86Zm-9.33-19L50,43.64h4.32Z"/><path class="cls-2" d="M72.57,53.22H65.43l3.41-24.39H76Z"/><path class="cls-2" d="M90.51,28.83c4.46,0,7,2.09,7,5.75,0,2.93-1.15,5-3.2,5.85a4.89,4.89,0,0,1,3,4.84c0,4.78-3.38,7.95-8.5,7.95H76.92l3.42-24.39ZM86.75,48c2,0,3.1-.7,3.1-2.79,0-1.42-.84-2.05-2.34-2.05H85.46L84.79,48Zm1.32-10.07c1.57,0,2.37-.69,2.37-2.09a1.69,1.69,0,0,0-1.92-1.77H86.75l-.56,3.86Z"/><path class="cls-2" d="M121,53.22h-7.67l-.35-4h-6.86l-1.5,4h-7.1l.07-.53L108,28.83h9.37l3.73,23.86Zm-9.34-19-3.48,9.41h4.32Z"/><path class="cls-2" d="M153.88,53.22h-3.24l-.73-21.15v.07l-.21,0-8.78,21.11h-4.43l-3-21.11h-.17V32L127,53.22h-3.24l0-.32,7.59-24.07h4.78l3,21.88,9.09-21.88h4.63l1.08,24.07Z"/><path class="cls-2" d="M177.29,53.22h-3.42l-1.08-6.9H163.6l-3.14,6.9h-3.2l0-.32,11.5-24.07h4.07l4.46,24.07ZM170.42,31.3l-5.64,12.44h7.6Z"/><path class="cls-2" d="M184.88,53.22h-3.24l3.42-24.39h3.24Z"/><path class="cls-2" d="M191.33,49.94a23.36,23.36,0,0,0,6.55,1c3.79,0,6.09-1.64,6.09-4.64,0-5-11.53-2.64-11.53-10.24,0-4,3.14-7.63,9.3-7.63a24.55,24.55,0,0,1,7,1L208.12,32a22.81,22.81,0,0,0-6.2-.94c-3.63,0-6.06,1.88-6.06,4.7,0,5.36,11.6,3,11.6,10.17,0,4.81-3.77,7.73-9.79,7.73a21.82,21.82,0,0,1-7.08-1.18Z"/><polygon class="cls-3" points="3.47 79.02 179.48 79.02 179.48 82.57 0 82.57 0 0 93.62 0 93.62 3.56 3.47 3.56 3.47 79.02"/><rect class="cls-3" x="117.54" width="4.51" height="3.56"/><rect class="cls-3" x="126.56" width="4.51" height="3.56"/><rect class="cls-3" x="180.72" width="4.51" height="3.56"/><rect class="cls-3" x="207.79" width="3.16" height="3.56"/><rect class="cls-3" x="171.69" width="4.51" height="3.56"/><rect class="cls-3" x="189.74" width="4.51" height="3.56"/><rect class="cls-3" x="198.77" width="4.51" height="3.56"/><rect class="cls-3" x="162.67" width="4.51" height="3.56"/><rect class="cls-3" x="135.59" width="4.51" height="3.56"/><rect class="cls-3" x="144.61" width="4.51" height="3.56"/><rect class="cls-3" x="153.64" width="4.51" height="3.56"/><polygon class="cls-3" points="263.58 10.57 267.05 9.42 267.05 0 216.33 0 216.33 3.56 263.58 3.56 263.58 10.57"/><polygon class="cls-3" points="263.58 52.21 263.58 79.02 220.89 79.02 220.89 82.57 267.05 82.57 267.05 44.03 263.58 52.21"/><path class="cls-3" d="M253.68,63.67a1.35,1.35,0,0,1-.93-.37l-9.15-8.68-8.09,5.1,0,0a1.23,1.23,0,0,1-.62.16h-.16a1.36,1.36,0,0,1-1.19-1.19l-1.82-15.36L218.83,31.27a1.39,1.39,0,0,1-.39-1.28,1.35,1.35,0,0,1,.89-1l19.49-6.5a1.29,1.29,0,0,1,.43-.07,1.34,1.34,0,0,1,1.21,2,1.38,1.38,0,0,1-.78.68l-14.4,4.8,18.65,3.24,24.39-17.59-25,8.33a1.2,1.2,0,0,1-.42.07,1.35,1.35,0,0,1-.43-2.64l33.4-11.13a1.47,1.47,0,0,1,.43-.07,1.35,1.35,0,0,1,1.24,1.9L254.92,62.87a1.37,1.37,0,0,1-1,.78A1.23,1.23,0,0,1,253.68,63.67Zm-2.39-5.48-4-16.69L240.56,48Zm2.77-.06,18.16-40.85-17.6,17.08a1.35,1.35,0,0,1-.94.38,1.36,1.36,0,0,1-1-.41,1.33,1.33,0,0,1-.38-1,1.3,1.3,0,0,1,.41-.95l9.3-9-27.65,20,1.11,9.35,1.83-5.12a1.41,1.41,0,0,1,.33-.51l12.63-12.26a1.37,1.37,0,0,1,.94-.38,1.35,1.35,0,0,1,1,.41,1.38,1.38,0,0,1,.39,1,1.35,1.35,0,0,1-.42.95l-2.65,2.58Zm-16.63-2.82,4.14-2.61-2.39-2.27ZM233.06,41l7.8-5.63L224,32.39Z"/><path class="cls-3" d="M221.64,54.25a1.37,1.37,0,0,1-1.35-1.35,1.35,1.35,0,0,1,.4-1l7.53-7.54a1.35,1.35,0,0,1,1.92,0,1.36,1.36,0,0,1,0,1.92l-7.54,7.53A1.35,1.35,0,0,1,221.64,54.25Z"/><path class="cls-3" d="M234.84,67.44a1.35,1.35,0,0,1-1-2.31l7.54-7.54a1.36,1.36,0,0,1,1.91,0,1.36,1.36,0,0,1,0,1.92l-7.54,7.54A1.34,1.34,0,0,1,234.84,67.44Z"/><path class="cls-3" d="M221.64,67.44a1.35,1.35,0,0,1-.95-2.31l7.53-7.54a1.38,1.38,0,0,1,1.92,0,1.36,1.36,0,0,1,0,1.92l-7.54,7.54A1.38,1.38,0,0,1,221.64,67.44Z"/></g></g></svg>