<?xml version="1.0" encoding="utf-8"?>
<!-- Generator: Adobe Illustrator 25.2.3, SVG Export Plug-In . SVG Version: 6.00 Build 0)  -->
<svg version="1.1" id="Layer_1" xmlns="http://www.w3.org/2000/svg" xmlns:xlink="http://www.w3.org/1999/xlink" x="0px" y="0px"
	 viewBox="0 0 166.3 267.5" style="enable-background:new 0 0 166.3 267.5;" xml:space="preserve">
<style type="text/css">
	.st0{opacity:0.15;fill:#005F55;enable-background:new    ;}
	.st1{fill:#005F55;}
	.st2{fill:none;stroke:#005F55;stroke-width:2;stroke-linecap:round;stroke-linejoin:round;}
	.st3{fill:none;stroke:#005F55;stroke-width:2;stroke-linecap:round;stroke-linejoin:round;stroke-dasharray:4.71,4.71;}
	.st4{enable-background:new    ;}
	.st5{fill:none;stroke:#005F55;stroke-width:2;stroke-miterlimit:10;}
</style>
<g id="Camada_2">
	<g id="Camada_1-2">
		<circle class="st0" cx="82.9" cy="83.7" r="68.3"/>
		<path class="st1" d="M136.4,142.9l2.3,2.6c-1.5,1.4-3.1,2.7-4.8,4l-2.1-2.7C133.4,145.6,135,144.3,136.4,142.9z"/>
		<path class="st1" d="M144.6,134.3l2.7,2.2c-1.3,1.6-2.7,3.2-4.1,4.7l-2.5-2.4C142,137.3,143.4,135.8,144.6,134.3z"/>
		<path class="st1" d="M151.4,124.5l3,1.8c-1,1.8-2.2,3.5-3.4,5.2l-2.8-2C149.3,127.9,150.4,126.2,151.4,124.5z"/>
		<path class="st1" d="M154.2,119.3l0.1-0.2c0.9-1.8,1.7-3.6,2.4-5.4l3.3,1.3c-0.8,1.9-1.6,3.8-2.5,5.7l-0.1,0.2L154.2,119.3z"/>
		<path class="st1" d="M151.3,42.5c10.8,17.9,14.2,39.3,9.4,59.6l3.3,1.2c5.2-21.5,1.6-44.2-10-63.1L151.3,42.5z"/>
		<path class="st1" d="M107.2,163.4l-1.3-3.2c-42.2,12.5-86.5-11.5-99.1-53.7S18.3,20,60.5,7.4c27.7-8.2,57.6-0.8,78.3,19.3l2.7-2.2
			C108.7-7.7,56.1-7.3,23.8,25.4s-31.8,85.5,1,117.7C46.5,164.4,78.1,172.2,107.2,163.4z"/>
		<line class="st2" x1="82.4" y1="181.5" x2="82.4" y2="184"/>
		<line class="st3" x1="82.4" y1="188.7" x2="82.4" y2="261.6"/>
		<line class="st2" x1="82.4" y1="264" x2="82.4" y2="266.5"/>
		<g class="st4">
			<path class="st5" d="M100,113.2H59.5l1.8-12.4h12.4l5.6-40.2H66.6L68,51l17.8-2.5h11.9l-7.3,52.3h11.4L100,113.2z"/>
		</g>
	</g>
</g>
</svg>
